HIERARCHY
ROOT Hips
{
	OFFSET 0.000000 0.000000 0.000000
	CHANNELS 6 Xposition Yposition Zposition Zrotation Yrotation Xrotation 
	JOINT LHipJoint
	{
		OFFSET 0.000000 0.000000 0.000000
		CHANNELS 3 Zrotation Yrotation Xrotation
		JOINT LeftUpLeg
		{
			OFFSET 8.178360 -10.767780 5.035740
			CHANNELS 3 Zrotation Yrotation Xrotation
			JOINT LeftLeg
			{
				OFFSET 14.688660 -40.356780 0.000000
				CHANNELS 3 Zrotation Yrotation Xrotation
				JOINT LeftFoot
				{
					OFFSET 15.373200 -42.237540 0.000000
					CHANNELS 3 Zrotation Yrotation Xrotation
					JOINT LeftToeBase
					{
						OFFSET 0.945840 -2.598660 13.935300
						CHANNELS 3 Zrotation Yrotation Xrotation
						End Site
						{
							OFFSET 0.000000 0.000000 0.000000
						}
					}
				}
			}
		}
	}
	JOINT RHipJoint
	{
		OFFSET 0.000000 0.000000 0.000000
		CHANNELS 3 Zrotation Yrotation Xrotation
		JOINT RightUpLeg
		{
			OFFSET -7.833120 -10.767780 5.035740
			CHANNELS 3 Zrotation Yrotation Xrotation
			JOINT RightLeg
			{
				OFFSET -15.255180 -41.913300 0.000000
				CHANNELS 3 Zrotation Yrotation Xrotation
				JOINT RightFoot
				{
					OFFSET -15.409560 -42.337380 0.000000
					CHANNELS 3 Zrotation Yrotation Xrotation
					JOINT RightToeBase
					{
						OFFSET -0.988380 -2.715540 14.178900
						CHANNELS 3 Zrotation Yrotation Xrotation
						End Site
						{
							OFFSET 0.000000 0.000000 0.000000
						}
					}
				}
			}
		}
	}
	JOINT LowerBack
	{
		OFFSET 0.000000 0.000000 0.000000
		CHANNELS 3 Zrotation Yrotation Xrotation
		JOINT Spine
		{
			OFFSET 0.169620 12.213540 -1.160280
			CHANNELS 3 Zrotation Yrotation Xrotation
			JOINT Spine1
			{
				OFFSET 0.340320 12.293100 -0.256500
				CHANNELS 3 Zrotation Yrotation Xrotation
				JOINT Neck
				{
					OFFSET 0.000000 0.000000 0.000000
					CHANNELS 3 Zrotation Yrotation Xrotation
					JOINT Neck1
					{
						OFFSET -0.325020 10.477440 1.032120
						CHANNELS 3 Zrotation Yrotation Xrotation
						JOINT Head
						{
							OFFSET 0.624420 10.568160 -0.743820
							CHANNELS 3 Zrotation Yrotation Xrotation
							End Site
							{
								OFFSET 0.000000 0.000000 0.000000
							}
						}
					}
				}
				JOINT LeftShoulder
				{
					OFFSET 0.000000 0.000000 0.000000
					CHANNELS 3 Zrotation Yrotation Xrotation
					JOINT LeftArm
					{
						OFFSET 20.174460 7.205340 -1.867260
						CHANNELS 3 Zrotation Yrotation Xrotation
						JOINT LeftForeArm
						{
							OFFSET 29.898000 -0.000000 -0.000000
							CHANNELS 3 Zrotation Yrotation Xrotation
							JOINT LeftHand
							{
								OFFSET 20.901360 -0.000000 -0.000000
								CHANNELS 3 Zrotation Yrotation Xrotation
								JOINT LeftFingerBase
								{
									OFFSET 0.000000 0.000000 0.000000
									CHANNELS 3 Zrotation Yrotation Xrotation
									JOINT LeftHandIndex1
									{
										OFFSET 4.291560 -0.000000 -0.000000
										CHANNELS 3 Zrotation Yrotation Xrotation
										End Site
										{
											OFFSET 0.000000 0.000000 0.000000
										}
									}
								}
								JOINT LThumb
								{
									OFFSET 0.000000 0.000000 0.000000
									CHANNELS 3 Zrotation Yrotation Xrotation
									End Site
									{
										OFFSET 0.000000 0.000000 0.000000
									}
								}
							}
						}
					}
				}
				JOINT RightShoulder
				{
					OFFSET 0.000000 0.000000 0.000000
					CHANNELS 3 Zrotation Yrotation Xrotation
					JOINT RightArm
					{
						OFFSET -18.819600 8.244300 -2.427900
						CHANNELS 3 Zrotation Yrotation Xrotation
						JOINT RightForeArm
						{
							OFFSET -31.451400 -0.000000 -0.000000
							CHANNELS 3 Zrotation Yrotation Xrotation
							JOINT RightHand
							{
								OFFSET -20.665020 -0.000000 -0.000000
								CHANNELS 3 Zrotation Yrotation Xrotation
								JOINT RightFingerBase
								{
									OFFSET 0.000000 0.000000 0.000000
									CHANNELS 3 Zrotation Yrotation Xrotation
									JOINT RightHandIndex1
									{
										OFFSET -3.735180 -0.000000 -0.000000
										CHANNELS 3 Zrotation Yrotation Xrotation
										End Site
										{
											OFFSET 0.000000 0.000000 0.000000
										}
									}
								}
								JOINT RThumb
								{
									OFFSET 0.000000 0.000000 0.000000
									CHANNELS 3 Zrotation Yrotation Xrotation
									End Site
									{
										OFFSET 0.000000 0.000000 0.000000
									}
								}
							}
						}
					}
				}
			}
		}
	}
}
MOTION
Frames:	6
Frame Time:	0.0333333
-80.941836 107.242758 -82.231170 4.622785 -1.236450 1.645516 -2.762145 2.404791 4.022463 -23.061764 -4.176027 11.215652 -0.597765 4.598528 15.495362 0.419273 -5.518637 8.483594 1.198800 -6.947000 -19.558600 0.996559 -0.982378 0.439308 11.747628 7.345259 -24.534871 -1.112915 -8.550434 24.280247 -0.623700 0.329024 10.078595 -0.030600 -1.129600 3.105500 -4.918713 -0.852990 7.815187 1.087506 -1.455990 0.922110 2.552488 -0.960716 -3.848098 -11.402398 -5.283199 -17.813499 6.508658 -5.077922 18.400125 4.303200 -2.775000 13.822800 -6.496941 -1.545959 -1.401593 -82.464968 -7.064021 23.901270 16.866520 -23.482268 -4.264805 -1.519863 -2.365360 5.444104 21.148206 23.382657 10.206300 -7.125000 0.000000 0.000000 -8.203000 57.432600 -2.508900 5.345950 1.720710 -1.120974 85.920382 -4.108541 4.978372 -12.736699 19.000025 -2.247342 0.381600 -0.352572 11.619153 -15.808796 10.380385 -3.080100 7.125000 0.000000 0.000000 7.632600 -18.964900 4.780200 
-81.621732 107.719104 -78.604662 4.215689 -1.264158 1.109180 -2.698244 2.234558 3.724646 -22.970319 -5.094389 8.848059 0.497297 7.333136 23.370759 0.434110 -3.951554 13.674311 0.799000 -5.705400 -15.931900 1.023919 -1.005476 0.604949 12.872875 5.897921 -22.436342 -1.227526 -8.680407 24.981093 -0.886156 2.416489 8.760282 -0.066600 -1.664900 4.580600 -4.556929 -0.758311 7.993611 1.146080 -1.298003 1.099325 2.402573 -0.870198 -3.612539 -11.477077 -5.277596 -18.308339 6.511423 -4.976604 18.456405 4.338500 -2.732700 13.954500 -6.581082 -1.457686 -1.414752 -82.729393 -6.056013 22.410278 16.152049 -22.546136 -3.891723 -1.582519 -2.353999 6.409859 21.065752 23.502336 10.223500 -7.125000 0.000000 0.000000 -8.330600 57.555200 -2.572900 5.400717 1.692375 -1.107178 85.863531 -3.699377 3.690412 -12.390327 18.492594 -2.124793 0.331859 -0.298965 13.717303 -14.410182 8.726229 -2.348900 7.125000 0.000000 0.000000 8.696600 -20.795500 5.100600 
-82.321500 108.084648 -75.116058 3.046890 -1.066200 0.644679 -2.602510 2.059368 3.343365 -21.635827 -5.390847 4.826823 2.168104 10.149691 32.052063 0.872235 -1.842763 22.130721 0.127300 -2.299700 -6.334700 1.076878 -1.048413 0.786210 14.916260 5.031597 -19.742530 -1.156800 -8.371942 24.401210 -0.935882 3.069414 7.997641 -0.074000 -1.754800 4.828500 -3.555191 -0.669350 8.214949 1.358753 -1.080939 1.182615 2.198996 -0.745269 -3.611548 -11.791865 -5.335854 -17.546646 6.883923 -5.040337 17.893224 4.541900 -2.750500 13.548800 -6.640729 -1.332044 -1.420669 -82.706880 -4.887683 22.400247 15.422366 -21.593068 -3.541491 -1.625010 -2.437514 6.820000 20.808789 24.549660 10.503700 -7.125000 0.000000 0.000000 -9.146800 58.661500 -3.071600 5.439706 1.701594 -1.072740 85.512059 -3.533029 4.042431 -12.196524 18.208427 -2.057913 0.332598 -0.320580 13.778767 -14.528982 9.118380 -2.477900 7.125000 0.000000 0.000000 8.595800 -20.368600 5.123800 
-82.957434 108.447180 -71.741274 1.008779 -0.613376 0.128944 -2.451152 1.917908 3.007949 -19.190404 -5.665784 0.710196 4.045225 12.500975 40.364795 1.275766 -4.106913 25.742171 0.000000 0.014700 0.040300 1.108317 -1.105536 0.949824 17.938473 3.819635 -16.553338 -0.962421 -7.764194 22.928288 -0.861321 2.954622 7.064018 -0.080500 -1.829900 5.035800 -1.657710 -0.570004 8.478519 1.722455 -0.740520 1.332393 1.755446 -0.569675 -3.490600 -11.724309 -5.416552 -17.738193 6.863337 -5.166594 18.171442 4.518800 -2.804700 13.732900 -6.660979 -1.263312 -1.422942 -82.592320 -4.112053 23.289081 14.860802 -20.824786 -3.285495 -1.562051 -2.364866 8.187236 19.328396 23.877069 9.461300 -7.125000 0.000000 0.000000 -10.515200 57.588600 -3.265100 5.474859 1.692201 -1.066027 85.045745 -3.326504 5.245935 -12.494715 18.660285 -2.166051 0.340829 -0.292991 13.102356 -14.536301 8.723302 -2.368900 7.125000 0.000000 0.000000 8.602800 -20.796100 5.044200 
-83.403672 108.567018 -68.536914 -0.490529 -0.249427 -0.773631 -2.307159 1.785305 2.687867 -17.445582 -5.623957 -3.059150 5.940245 14.350122 47.597100 0.673412 -2.772544 19.849841 0.132700 -2.348000 -6.468500 1.110539 -1.166683 1.116136 20.058853 2.360430 -13.301369 -0.829477 -7.273107 21.757410 -0.814137 2.965033 5.773521 -0.189700 -2.804700 7.735400 -0.194850 -0.358650 9.376454 1.974710 -0.292497 1.404388 1.324000 -0.323335 -3.882316 -11.645479 -5.489805 -17.323428 6.652326 -5.335270 18.334147 4.394700 -2.908400 13.729300 -6.655625 -1.212705 -1.436429 -82.651132 -3.193439 24.300434 14.571813 -20.434012 -3.161377 -1.612107 -2.283942 9.368129 19.471713 23.392168 9.361200 -7.125000 0.000000 0.000000 -10.089900 57.084500 -3.008200 5.486696 1.692136 -1.063078 84.315063 -3.277735 7.642497 -12.980764 19.348243 -2.338924 0.382127 -0.222747 11.525366 -15.045172 7.337392 -2.059800 7.125000 0.000000 0.000000 8.266800 -22.258700 4.565900 
-83.769216 108.682038 -65.444568 -1.133555 -0.127419 -1.085708 -2.236733 1.590611 2.354197 -16.495532 -5.309712 -7.248885 7.175077 15.394552 51.918307 0.262981 -0.885211 15.402276 0.129300 -2.317800 -6.384700 1.126805 -1.189221 1.262919 21.018951 1.096117 -10.995495 -0.743955 -6.910508 20.912914 -0.912458 3.744030 4.590015 -0.134500 -2.363800 6.512200 0.390711 0.075162 9.434810 2.026068 0.335767 1.435764 0.983669 0.015771 -3.892947 -11.631107 -5.614807 -16.739535 6.577566 -5.577219 18.256452 4.320700 -3.026800 13.577800 -6.649820 -1.142300 -1.462438 -82.940787 -2.272860 24.261542 14.569673 -20.458423 -3.161793 -1.666626 -2.284764 10.269585 19.819430 23.782961 9.677700 -7.125000 0.000000 0.000000 -9.907700 57.586500 -3.073400 5.494231 1.687375 -1.029995 83.717695 -2.463416 8.263647 -12.965328 19.310467 -2.327399 0.416730 -0.208126 10.464922 -15.687205 6.981949 -2.048000 7.125000 0.000000 0.000000 7.790500 -22.611000 4.234600 
